<svg version="1.1" xmlns="http://www.w3.org/2000/svg" xmlns:xlink="http://www.w3.org/1999/xlink" viewBox="0 0 172 172"><g fill="none" fill-rule="nonzero" stroke="none" stroke-width="1" stroke-linecap="butt" stroke-linejoin="miter" stroke-miterlimit="10" stroke-dasharray="" stroke-dashoffset="0" font-family="none" font-weight="none" font-size="none" text-anchor="none" style="mix-blend-mode: normal"><path d="M0,172v-172h172v172z" fill="none"></path><g fill="#c8c8c8"><path d="M86.02799,21.45801c-1.12549,0.00838 -2.23319,0.28171 -3.2334,0.79785l-57.33333,28.66667c-2.42793,1.21433 -3.96145,3.69614 -3.96126,6.41081v50.16667c-0.03655,2.58456 1.32136,4.98858 3.55376,6.29153c2.2324,1.30295 4.99342,1.30295 7.22582,0c2.2324,-1.30295 3.59031,-3.70697 3.55376,-6.29153v-45.74349l53.37207,-26.67904c3.01784,-1.45963 4.62082,-4.8161 3.85919,-8.08072c-0.76164,-3.26463 -3.68441,-5.56524 -7.0366,-5.53874zM114.69466,42.95801c-1.12549,0.00838 -2.23319,0.28171 -3.2334,0.79785l-57.33333,28.66667c-2.42793,1.21433 -3.96145,3.69614 -3.96126,6.41081v50.16667c-0.03655,2.58456 1.32136,4.98858 3.55376,6.29153c2.2324,1.30295 4.99342,1.30295 7.22582,0c2.2324,-1.30295 3.59031,-3.70697 3.55376,-6.29153v-45.74349l53.37207,-26.67904c3.01784,-1.45963 4.62082,-4.8161 3.85919,-8.08072c-0.76164,-3.26463 -3.68441,-5.56524 -7.0366,-5.53874zM143.12337,64.5c-1.04156,0.03121 -2.06378,0.28916 -2.99544,0.75586l-57.33333,28.66667c-2.42793,1.21433 -3.96145,3.69614 -3.96126,6.41081v50.16667c0.00008,2.48388 1.28618,4.79065 3.39905,6.09658c2.11287,1.30593 4.75126,1.42482 6.97302,0.31423l57.33333,-28.66667c2.42793,-1.21433 3.96145,-3.69614 3.96126,-6.41081v-50.16667c0.00063,-1.9376 -0.78324,-3.79291 -2.17297,-5.14308c-1.38973,-1.35017 -3.26689,-2.08016 -5.20366,-2.02359z"></path></g></g></svg>