<svg xmlns="http://www.w3.org/2000/svg" viewBox="0 0 135.46666 135.46666" height="512" width="512">
  <g fill="#c8c8c8">
    <path d="M121.37143 33.70981c-.0208-1.31903-.57232-2.62223-1.50482-3.55534l-14.5521-14.55209c-.9523-.95265-2.29101-1.5073-3.63802-1.5073-1.347 0-2.685705.55465-3.638015 1.5073l-48.49316 48.49317c-.95265.9523-1.5073 2.29101-1.5073 3.63802s.55465 2.68571 1.5073 3.63802l48.49316 48.49316c.95231.95265 2.291015 1.5073 3.638015 1.5073 1.34701 0 2.68572-.55465 3.63802-1.5073l14.5521-14.55208c.95019-.95201 1.50317-2.28883 1.50317-3.63389 0-1.34506-.55298-2.68187-1.50317-3.63388L89.555275 67.73357l30.311335-30.31133c.96949-.97017 1.52517-2.34104 1.50482-3.71243z"/>
    <path d="M14.095159 101.75733c.0207 1.31903.57232 2.62222 1.50482 3.55534l14.552079 14.55208c.95231.95265 2.29102 1.5073 3.63802 1.5073 1.34701 0 2.68572-.55465 3.63802-1.5073l48.49317-48.49316c.95264-.95231 1.5073-2.29102 1.5073-3.63802 0-1.34701-.55466-2.68572-1.5073-3.63803l-48.49317-48.49316c-.9523-.95265-2.29101-1.5073-3.63802-1.5073-1.347 0-2.68571.55465-3.63802 1.5073L15.599979 30.15446c-.95019.95201-1.50317 2.28883-1.50317 3.63389 0 1.34506.55298 2.68188 1.50317 3.63389l30.311329 30.31133-30.311329 30.31132c-.9695.97017-1.52517 2.34104-1.50482 3.71244z"/>
  </g>
</svg>