<svg height="512" width="512" xmlns="http://www.w3.org/2000/svg">
    <path
        d="M117.4182 924.95679c.0784 4.9853 2.16308 9.91077 5.6875 13.4375l55 55c3.59927 3.60057 8.65895 5.69689 13.75 5.69689 5.09105 0 10.15073-2.09632 13.75-5.69689l183.28125-183.28125c3.60056-3.59927 5.69688-8.65895 5.69688-13.75 0-5.09105-2.09632-10.15073-5.69688-13.75L205.6057 599.33179c-3.59927-3.60056-8.65895-5.69688-13.75-5.69688-5.09105 0-10.15073 2.09632-13.75 5.69688l-55 55c-3.59127 3.59815-5.68127 8.65068-5.68127 13.73438 0 5.08369 2.09 10.13622 5.68127 13.73437l114.5625 114.5625-114.5625 114.5625c-3.66423 3.66678-5.76442 8.84801-5.6875 14.03125z"
        fill="#C8C8C8"
        transform="translate(0 -540.3622)" />
</svg>